<svg xmlns="http://www.w3.org/2000/svg" xmlns:xlink="http://www.w3.org/1999/xlink" width="500" zoomAndPan="magnify" viewBox="0 0 375 374.999991" height="500" preserveAspectRatio="xMidYMid meet" version="1.0"><defs><g/><clipPath id="ab2d27cd24"><path d="M 35.898438 35.898438 L 367.398438 35.898438 L 367.398438 367.398438 L 35.898438 367.398438 Z M 35.898438 35.898438 " clip-rule="nonzero"/></clipPath><clipPath id="fc06bb6b46"><path d="M 7.867188 7.867188 L 348.367188 7.867188 L 348.367188 348.367188 L 7.867188 348.367188 Z M 7.867188 7.867188 " clip-rule="nonzero"/></clipPath></defs><g clip-path="url(#ab2d27cd24)"><path fill="#64dd17" d="M 35.898438 35.898438 L 367.398438 35.898438 L 367.398438 367.398438 L 35.898438 367.398438 L 35.898438 35.898438 " fill-opacity="1" fill-rule="nonzero"/></g><g clip-path="url(#fc06bb6b46)"><path fill="#000000" d="M 7.867188 7.867188 L 7.867188 348.367188 L 348.367188 348.367188 L 348.367188 7.867188 L 7.867188 7.867188 M 337.523438 337.523438 L 18.488281 337.523438 L 18.488281 18.488281 L 337.523438 18.488281 L 337.523438 337.523438 " fill-opacity="1" fill-rule="nonzero"/></g><g fill="#000000" fill-opacity="1"><g transform="translate(116.551668, 288.445587)"><g><path d="M 153.328125 -74.359375 C 149.765625 -46.984375 141.945312 -27.335938 129.875 -15.421875 C 117.8125 -3.515625 100.84375 2.4375 78.96875 2.4375 C 58.71875 2.4375 43.613281 -2.378906 33.65625 -12.015625 C 23.695312 -21.660156 18.632812 -34.582031 18.46875 -50.78125 C 18.46875 -59.207031 18.789062 -65.769531 19.4375 -70.46875 L 31.828125 -165.96875 L 14.828125 -168.640625 L 16.28125 -180.546875 L 88.9375 -180.546875 L 87.71875 -168.890625 L 65.859375 -165.71875 L 53.703125 -73.140625 C 52.566406 -62.609375 52 -54.832031 52 -49.8125 C 52.164062 -37.664062 55.039062 -28.1875 60.625 -21.375 C 66.21875 -14.570312 74.359375 -11.171875 85.046875 -11.171875 C 99.304688 -11.171875 110.160156 -16.351562 117.609375 -26.71875 C 125.066406 -37.09375 130.171875 -52.972656 132.921875 -74.359375 L 145.3125 -165.71875 L 128.296875 -168.890625 L 129.28125 -180.546875 L 182 -180.546875 L 180.546875 -168.890625 L 165.234375 -165.96875 Z M 80.203125 -199.75 C 76.148438 -199.75 72.742188 -201.164062 69.984375 -204 C 67.234375 -206.832031 65.859375 -210.4375 65.859375 -214.8125 C 65.859375 -220.476562 67.554688 -225.132812 70.953125 -228.78125 C 74.359375 -232.425781 78.65625 -234.25 83.84375 -234.25 C 88.375 -234.25 91.976562 -232.867188 94.65625 -230.109375 C 97.332031 -227.359375 98.671875 -223.878906 98.671875 -219.671875 C 98.671875 -213.515625 97.085938 -208.65625 93.921875 -205.09375 C 90.765625 -201.53125 86.191406 -199.75 80.203125 -199.75 Z M 135.84375 -199.75 C 131.789062 -199.75 128.425781 -201.164062 125.75 -204 C 123.082031 -206.832031 121.75 -210.4375 121.75 -214.8125 C 121.75 -220.644531 123.410156 -225.34375 126.734375 -228.90625 C 130.054688 -232.46875 134.304688 -234.25 139.484375 -234.25 C 144.023438 -234.25 147.628906 -232.867188 150.296875 -230.109375 C 152.972656 -227.359375 154.3125 -223.878906 154.3125 -219.671875 C 154.3125 -213.679688 152.691406 -208.863281 149.453125 -205.21875 C 146.210938 -201.570312 141.675781 -199.75 135.84375 -199.75 Z M 135.84375 -199.75 "/></g></g></g></svg>